<svg id="Icons" height="512" viewBox="0 0 74 74" width="512" xmlns="http://www.w3.org/2000/svg"><path d="m59 66h-44a13.014 13.014 0 0 1 -13-13v-8a1 1 0 0 1 1-1h58v2h-57v7a11.012 11.012 0 0 0 11 11h44a11.012 11.012 0 0 0 11-11v-7h-5v-2h6a1 1 0 0 1 1 1v8a13.014 13.014 0 0 1 -13 13z"/><path d="m59 72h-4a1 1 0 0 1 -.832-.445l-4-6a1 1 0 0 1 .832-1.555h8a1 1 0 0 1 1 1v6a1 1 0 0 1 -1 1zm-3.465-2h2.465v-4h-5.131z"/><path d="m19 72h-4a1 1 0 0 1 -1-1v-6a1 1 0 0 1 1-1h8a1 1 0 0 1 .832 1.555l-4 6a1 1 0 0 1 -.832.445zm-3-2h2.465l2.667-4h-5.132z"/><path d="m4 45h-2v-34a9 9 0 0 1 18 0v4h-2v-4a7 7 0 0 0 -14 0z"/><path d="m29 26h-20a1 1 0 0 1 -1-1 11 11 0 0 1 22 0 1 1 0 0 1 -1 1zm-18.945-2h17.89a9 9 0 0 0 -17.89 0z"/><path d="m26.836 40.012-.608-3.954 1.977-.3.608 3.954zm-1.216-7.907-.608-3.954 1.977-.3.611 3.949z"/><path d="m11.164 40.012-1.977-.3.613-3.957 1.977.3zm1.216-7.907-1.98-.305.608-3.954 1.977.3z"/><path d="m21.836 40.012-.608-3.954 1.977-.3.608 3.954zm-1.216-7.907-.608-3.954 1.977-.3.611 3.949z"/><path d="m16.164 40.012-1.977-.3.608-3.954 1.977.3zm1.216-7.907-1.98-.305.608-3.954 1.977.3z"/></svg>