<?xml version="1.0" encoding="iso-8859-1"?>
<!-- Generator: Adobe Illustrator 19.0.0, SVG Export Plug-In . SVG Version: 6.00 Build 0)  -->
<svg version="1.1" id="Capa_1" xmlns="http://www.w3.org/2000/svg" xmlns:xlink="http://www.w3.org/1999/xlink" x="0px" y="0px"
	 viewBox="0 0 511.999 511.999" style="enable-background:new 0 0 511.999 511.999;" xml:space="preserve">
<g>
	<g>
		<path d="M488.468,72.145c-12.976,0-23.532,10.557-23.532,23.532v40.597H47.064V95.677c0-12.976-10.557-23.532-23.532-23.532
			C10.557,72.145,0,82.702,0,95.677v328.662c0,8.556,6.96,15.516,15.516,15.516h16.032c8.556,0,15.516-6.96,15.516-15.516v-40.597
			h417.871v40.597c0,8.556,6.96,15.516,15.516,15.516h16.032c8.556,0,15.516-6.96,15.516-15.516V95.677
			C512,82.702,501.443,72.145,488.468,72.145z M32.064,424.339c0,0.285-0.231,0.516-0.516,0.516H15.516
			c-0.285,0-0.516-0.231-0.516-0.516v-16.548h17.064V424.339z M32.064,392.79H15V95.677c0-4.704,3.828-8.532,8.532-8.532
			c4.705,0,8.532,3.828,8.532,8.532V392.79z M335.645,151.274h33.097v185.403h-33.097V151.274z M287.548,151.274h33.097v185.403
			h-33.097V151.274z M239.452,151.274h33.097v185.403h-33.097V151.274z M191.355,151.274h33.097v185.403h-33.097V151.274z
			 M143.258,151.274h33.097v185.403h-33.097V151.274z M47.064,151.274h33.097v144.804c0,4.142,3.358,7.5,7.5,7.5
			c4.142,0,7.5-3.358,7.5-7.5V151.274h33.097v185.403H95.161v-8.529c0-4.142-3.358-7.5-7.5-7.5c-4.142,0-7.5,3.358-7.5,7.5v8.529
			H47.064V151.274z M464.935,368.742H47.064v-17.064h417.871V368.742z M431.839,336.677V191.873c0-4.142-3.358-7.5-7.5-7.5
			c-4.142,0-7.5,3.358-7.5,7.5v144.804h-33.097V151.274h33.097v8.529c0,4.142,3.358,7.5,7.5,7.5c4.142,0,7.5-3.358,7.5-7.5v-8.529
			h33.097v185.403H431.839z M497,424.339c0,0.285-0.231,0.516-0.516,0.516h-16.032c-0.285,0-0.516-0.231-0.516-0.516v-16.548H497
			V424.339z M497,392.79h-17.064V95.677c0-4.705,3.828-8.532,8.532-8.532c4.704,0,8.532,3.828,8.532,8.532V392.79z"/>
	</g>
</g>
<g>
</g>
<g>
</g>
<g>
</g>
<g>
</g>
<g>
</g>
<g>
</g>
<g>
</g>
<g>
</g>
<g>
</g>
<g>
</g>
<g>
</g>
<g>
</g>
<g>
</g>
<g>
</g>
<g>
</g>
</svg>
