<?xml version="1.0" encoding="iso-8859-1"?>
<!-- Generator: Adobe Illustrator 19.0.0, SVG Export Plug-In . SVG Version: 6.00 Build 0)  -->
<svg version="1.1" id="Capa_1" xmlns="http://www.w3.org/2000/svg" xmlns:xlink="http://www.w3.org/1999/xlink" x="0px" y="0px"
	 viewBox="0 0 512.001 512.001" style="enable-background:new 0 0 512.001 512.001;" xml:space="preserve">
<g>
	<g>
		<path d="M246.748,226.772c-1.298-12.156-4.293-23.736-8.448-34.649c5.931-34.612,7.903-69.924,5.845-104.981
			c-0.001-0.02-0.002-0.04-0.003-0.06C241.269,38.251,200.702,0,151.786,0C81.349,0,24.044,57.305,24.044,127.745
			c0,24.646,1.884,49.485,5.576,73.862c-3.173,8.8-5.407,17.993-6.389,27.545c-3.12,30.322,6.341,59.356,28.143,86.611
			c1.86,12.373,3.192,24.959,3.95,37.436c0.242,3.979,3.545,7.045,7.479,7.045c0.153,0,0.307-0.005,0.462-0.014
			c4.135-0.251,7.283-3.807,7.031-7.941c-0.355-5.834-0.844-11.69-1.436-17.539c0.933,0.892,1.873,1.783,2.835,2.67
			c9.525,8.795,24.44,8.2,33.254-1.331c8.798-9.531,8.201-24.448-1.332-33.253c-24.639-22.743-35.933-45.914-33.57-68.869
			c4.233-41.169,48.843-77.104,72.317-93.325c47.408,40.391,56.075,76.992,57.584,91.126c2.632,24.67-6.675,49.135-27.662,72.716
			c-4.179,4.696-6.279,10.738-5.913,17.013c0.366,6.275,3.153,12.032,7.849,16.211c4.313,3.838,9.868,5.952,15.64,5.952
			c3.762,0,7.429-0.904,10.711-2.58c-0.111,3.971-0.175,7.941-0.175,11.89v79.384c0,35.646-29,64.645-64.645,64.645
			c-35.645,0-64.645-29-64.645-64.645v-47.592c0-4.142-3.358-7.5-7.5-7.5c-4.142,0-7.5,3.358-7.5,7.5v47.592
			c0,43.917,35.729,79.645,79.645,79.645c43.916,0,79.645-35.729,79.645-79.645V352.97c0-9.266,0.315-18.644,0.923-27.896
			C240.183,294.194,250.421,261.184,246.748,226.772z M151.786,15c40.967,0,74.946,32.022,77.378,72.911
			c0.001,0.019,0.002,0.037,0.003,0.056c1.565,26.611,0.718,53.37-2.484,79.839c-22.196-38.533-55.944-65.54-69.042-75.107
			c-7.671-5.586-17.87-6.042-25.977-1.167c-17.321,10.389-63.75,41.065-90.085,85.08c-1.67-16.243-2.535-32.598-2.535-48.87
			C39.044,65.576,89.62,15,151.786,15z M196.241,325.801c-1.618,1.818-3.942,2.86-6.378,2.86c-2.091,0-4.104-0.766-5.668-2.158
			c-1.703-1.516-2.713-3.603-2.846-5.879c-0.133-2.275,0.628-4.466,2.144-6.168c23.916-26.872,34.471-55.228,31.372-84.28
			c-2.276-21.318-11.803-43.127-28.315-64.824c-13.407-17.617-28.592-31.418-38.97-39.893c-1.375-1.123-3.057-1.691-4.745-1.691
			c-1.438,0-2.88,0.413-4.141,1.247c-23.398,15.498-78.381,56.99-83.566,107.416c-2.873,27.909,10.019,55.304,38.315,81.425
			c3.457,3.193,3.675,8.603,0.49,12.053c-3.198,3.459-8.608,3.678-12.062,0.49C49.41,296.434,34.7,264.232,38.152,230.687
			c2.823-27.45,17.75-55.022,44.366-81.95c21.617-21.87,44.905-37.169,56.872-44.346c2.936-1.766,6.635-1.596,9.414,0.428
			c17.77,12.979,76.272,60.247,83.03,123.546C235.465,262.399,223.491,295.182,196.241,325.801z"/>
	</g>
</g>
<g>
	<g>
		<path d="M488.77,229.153c-0.982-9.552-3.216-18.745-6.389-27.545c3.692-24.378,5.576-49.217,5.576-73.866
			C487.956,57.305,430.651,0,360.214,0c-48.916,0-89.483,38.251-92.355,87.082c-0.001,0.02-0.002,0.039-0.003,0.059
			c-2.058,35.059-0.086,70.368,5.845,104.982c-4.154,10.913-7.15,22.493-8.448,34.649c-3.673,34.412,6.564,67.423,30.426,98.304
			c0.608,9.252,0.923,18.63,0.923,27.896v79.384c0,43.917,35.729,79.645,79.645,79.645c43.916,0,79.645-35.729,79.645-79.645
			v-53.331c0-21.107,1.602-42.384,4.742-63.268C482.43,288.503,491.889,259.471,488.77,229.153z M282.832,87.967
			c0.001-0.018,0.002-0.037,0.003-0.055C285.268,47.023,319.247,15,360.214,15c62.167,0,112.742,50.576,112.742,112.745
			c0,16.274-0.856,32.634-2.528,48.881c-26.334-44.022-72.769-74.703-90.086-85.09c-8.114-4.879-18.313-4.423-25.993,1.169
			c-13.093,9.563-46.843,36.572-69.038,75.109C282.11,141.343,281.267,114.58,282.832,87.967z M430.13,326.398
			c-3.452,3.188-8.862,2.968-12.055-0.485c-3.19-3.456-2.972-8.865,0.484-12.057c28.298-26.122,41.189-53.518,38.316-81.425
			c-2.468-24.003-16.186-48.542-40.773-72.936c-2.939-2.917-7.688-2.899-10.606,0.042c-2.917,2.94-2.898,7.689,0.042,10.607
			c22.06,21.887,34.312,43.36,36.417,63.823c2.363,22.954-8.932,46.125-33.572,68.87c-9.531,8.803-10.128,23.72-1.326,33.257
			c8.81,9.526,23.726,10.122,33.248,1.327c0.969-0.895,1.918-1.793,2.859-2.692c-1.497,14.726-2.271,29.549-2.271,44.295v53.331
			h-0.002c0,35.646-29,64.645-64.645,64.645c-35.645,0-64.645-29-64.645-64.645v-79.384c0-3.95-0.069-7.92-0.178-11.892
			c3.283,1.677,6.95,2.582,10.714,2.582c5.772,0,11.327-2.114,15.64-5.953c4.696-4.179,7.483-9.936,7.849-16.211
			c0.366-6.275-1.734-12.317-5.913-17.013c-20.987-23.581-30.293-48.046-27.662-72.716c1.509-14.135,10.177-50.737,57.585-91.128
			c4.213,2.909,8.376,5.949,12.426,9.074c3.28,2.531,7.989,1.923,10.52-1.357c2.531-3.28,1.923-7.989-1.356-10.52
			c-5.808-4.481-11.837-8.795-17.919-12.824c-2.74-1.814-6.341-1.634-8.886,0.444c-10.377,8.475-25.562,22.276-38.97,39.893
			c-16.512,21.697-26.039,43.506-28.315,64.824c-3.1,29.052,7.456,57.408,31.372,84.28c1.515,1.702,2.276,3.893,2.144,6.168
			c-0.133,2.275-1.144,4.363-2.846,5.878c-1.564,1.392-3.577,2.158-5.668,2.158c-2.436,0-4.761-1.042-6.378-2.86
			c-27.25-30.619-39.224-63.402-35.591-97.437c6.757-63.299,65.26-110.567,83.021-123.539c2.788-2.03,6.487-2.2,9.431-0.43
			c11.958,7.173,35.247,22.472,56.864,44.342c26.616,26.928,41.543,54.501,44.366,81.951
			C477.303,264.23,462.593,296.432,430.13,326.398z"/>
	</g>
</g>
<g>
</g>
<g>
</g>
<g>
</g>
<g>
</g>
<g>
</g>
<g>
</g>
<g>
</g>
<g>
</g>
<g>
</g>
<g>
</g>
<g>
</g>
<g>
</g>
<g>
</g>
<g>
</g>
<g>
</g>
</svg>
