<svg id="Capa_1" enable-background="new 0 0 512.008 512.008" height="512" viewBox="0 0 512.008 512.008" width="512" xmlns="http://www.w3.org/2000/svg"><g><path d="m77.299 56.047-27.647-16.185c-3.575-2.093-8.169-.891-10.262 2.684s-.891 8.169 2.684 10.262l27.646 16.184c3.513 2.06 8.147.928 10.262-2.684 2.093-3.574.891-8.169-2.683-10.261zm8.208-18.53c2.777 3.088 7.521 3.322 10.592.561 3.079-2.77 3.331-7.512.561-10.592l-22.486-25.002c-2.769-3.079-7.511-3.33-10.592-.561-3.079 2.77-3.331 7.512-.561 10.592zm-27.927 47.703-32.809-7.368c-4.048-.911-8.054 1.633-8.961 5.674-.908 4.042 1.633 8.054 5.674 8.961l32.809 7.368c.554.125 1.106.185 1.65.185 3.432 0 6.527-2.37 7.311-5.858.908-4.043-1.633-8.054-5.674-8.962zm430.535 128.565c-12.749-30.144-38.262-52.021-69.998-60.022l-194.141-48.945-54.652-61.632c-6.588-7.432-17.798-8.343-25.52-2.076-14.748 11.963-27.249 26.186-37.155 42.273-11.602 18.844-19.266 39.563-22.78 61.581-1.563 9.794 4.835 19.025 14.565 21.018l80.696 16.513 26.959 27.771c2.888 2.974 7.635 3.041 10.605.158 2.973-2.886 3.043-7.634.158-10.605l-24.625-25.366 31.333-54.27 190.888 48.125c27.135 6.841 48.949 25.547 59.85 51.32s9.127 54.455-4.864 78.689c-13.992 24.234-37.944 40.111-65.715 43.558-27.769 3.45-54.877-6.092-74.369-26.171l-91.11-93.853c-2.885-2.974-7.632-3.043-10.604-.158-2.973 2.886-3.043 7.634-.158 10.605l60.664 62.49c-12.129 2.078-22.932 9.439-29.181 20.271-5.576 9.662-7.059 20.916-4.173 31.689 3.299 12.315 12.357 22.463 23.916 27.928l-33.813 58.562c-7.013 12.146-8.876 26.297-5.245 39.843 3.63 13.545 12.317 24.864 24.459 31.871 12.179 7.028 26.374 8.857 39.836 5.25 13.545-3.629 24.867-12.316 31.881-24.464l59.485-103.029c2.071-3.587.842-8.174-2.745-10.245-3.586-2.071-8.175-.844-10.245 2.745l-59.485 103.031c-5.01 8.677-13.098 14.883-22.772 17.475-9.675 2.593-19.779 1.261-28.454-3.751-8.673-5.006-14.878-13.09-17.471-22.765s-1.263-19.782 3.747-28.459l64.187-111.169c19.304 18.146 44.261 27.999 70.464 27.999 4.317 0 8.67-.268 13.035-.81 32.479-4.031 60.493-22.6 76.857-50.943s18.438-61.889 5.69-92.032zm-309.007-46.607-77.666-15.893c-1.842-.377-3.055-2.116-2.761-3.959 3.201-20.058 10.18-38.926 20.741-56.079 9.017-14.645 20.399-27.595 33.832-38.49.658-.534 1.448-.796 2.232-.796.967 0 1.926.398 2.614 1.175l52.601 59.319zm107.097 194.509-4.459-2.573c-12.777-7.374-17.171-23.773-9.793-36.557 4.765-8.258 13.655-13.388 23.203-13.388 2.811 0 5.57.446 8.225 1.317l7.767 8zm164.934-74.433c15.618-27.05 5.617-61.207-20.431-76.247-26.52-15.312-61.039-5.912-76.247 20.43-15.389 26.654-6.225 60.858 20.43 76.248 26.321 15.196 60.698 6.503 76.248-20.431zm-83.687-48.318c11.131-19.28 36.349-26.144 55.757-14.939 19.138 11.048 26.051 36.511 14.94 55.757-11.253 19.492-36.268 26.192-55.758 14.94-19.491-11.254-26.192-36.267-14.939-55.758zm-37.463 183.728c5.806-1.556 10.658-5.278 13.662-10.484 3.005-5.204 3.804-11.268 2.248-17.072-1.556-5.806-5.278-10.658-10.482-13.662-5.206-3.006-11.269-3.805-17.074-2.248-5.805 1.556-10.657 5.278-13.662 10.484-6.203 10.744-2.508 24.532 8.235 30.734 3.467 2.002 7.315 3.024 11.214 3.024 1.954 0 3.922-.257 5.859-.776zm-9.573-15.239c-3.581-2.067-4.813-6.664-2.745-10.245 1.002-1.735 2.619-2.977 4.555-3.495.646-.173 1.301-.258 1.952-.258 1.3 0 2.583.341 3.739 1.008 1.734 1.002 2.976 2.619 3.494 4.554s.252 3.956-.75 5.691v.001c-1.002 1.734-2.619 2.976-4.554 3.494-1.934.518-3.956.251-5.691-.75zm95.171-123.377c2.071-3.587.842-8.174-2.745-10.245l-27.582-15.924c-3.589-2.07-8.176-.843-10.245 2.745-2.071 3.587-.842 8.174 2.745 10.245l27.582 15.924c3.522 2.036 8.151.88 10.245-2.745zm-105.413 172.966-27.582-15.924c-3.59-2.071-8.176-.843-10.245 2.745-2.071 3.587-.842 8.174 2.745 10.245l27.582 15.924c1.182.682 2.471 1.006 3.743 1.006 2.592 0 5.113-1.345 6.502-3.751 2.071-3.586.841-8.173-2.745-10.245zm82.586-212.127 27.582 15.925c3.523 2.039 8.152.879 10.245-2.745 2.071-3.587.842-8.174-2.745-10.245l-27.582-15.925c-3.586-2.071-8.175-.843-10.245 2.745-2.072 3.587-.842 8.174 2.745 10.245z"/></g></svg>